<?xml version="1.0" ?><svg id="Flat" viewBox="0 0 512 512" xmlns="http://www.w3.org/2000/svg"><title/><g><path d="M48,202.81V120L255.969,8,464,120v82.819A300,300,0,0,1,334.769,449.472L256.011,504l-78.768-54.529A300,300,0,0,1,48,202.81Z" fill="#2a75e6"/><path d="M52.749,256A300.017,300.017,0,0,0,177.243,449.471L256.011,504l78.758-54.528A300.017,300.017,0,0,0,459.253,256Z" fill="#f9d549"/><path d="M276,144a20,20,0,0,0-20,20V140a20,20,0,0,0-40,0v8a20,20,0,0,0-40,0V248H296V164A20,20,0,0,0,276,144Z" fill="#ffd4cf"/><path d="M264,200V168a8,8,0,0,0-16,0v32H224V152a8,8,0,0,0-16,0v48H196a20,20,0,0,0-20,20v12H296V200Z" fill="#fbb8b0"/><path d="M336,256l-20,8a20,20,0,0,1-20-20V180a20,20,0,0,1,20-20h0a20,20,0,0,1,20,20Z" fill="#ffd4cf"/><path d="M336,248v16l-24,80v72l-56,40-56-40V328l-24-64V236a20,20,0,0,1,20-20H296Z" fill="#ffd4cf"/><path d="M256.01,464a7.992,7.992,0,0,1-4.539-1.412l-56-38.582A266.443,266.443,0,0,1,80,204.666V144.144a8,8,0,0,1,4.283-7.084L252.255,48.916a8,8,0,0,1,7.434,0l168.027,88.146A8,8,0,0,1,432,144.146v60.529A266.447,266.447,0,0,1,316.538,424.008l-55.989,38.579A7.988,7.988,0,0,1,256.01,464ZM96,148.98v55.686A250.447,250.447,0,0,0,204.549,410.831h0l51.459,35.454,51.451-35.452A250.449,250.449,0,0,0,416,204.675V148.984L255.973,65.034Z" fill="#2568cc"/><path d="M320,255.9c-1.245,0-2.587,0-4.034,0a12.013,12.013,0,0,1-12-12V184a8,8,0,0,0-16,0v40a32,32,0,0,1-32,32h-24a8.007,8.007,0,0,0-7.659,5.678,8.255,8.255,0,0,0,.827,6.491l25.3,44.272a42,42,0,0,1,5.534,20.837V352h16V333.278a58.106,58.106,0,0,0-7.642-28.776L245.751,272h10.215a47.838,47.838,0,0,0,33.266-13.4,42.76,42.76,0,0,0,45.123,10.881L336,264v-8Z" fill="#fbb8b0"/></g></svg>